<?xml version="1.0" standalone="no"?>
<!DOCTYPE svg PUBLIC "-//W3C//DTD SVG 20010904//EN"
 "http://www.w3.org/TR/2001/REC-SVG-20010904/DTD/svg10.dtd">
<svg version="1.0" xmlns="http://www.w3.org/2000/svg"
 width="512.000000pt" height="512.000000pt" viewBox="0 0 512.000000 512.000000"
 preserveAspectRatio="xMidYMid meet">

<g transform="translate(0.000000,512.000000) scale(0.100000,-0.100000)"
fill="#000000" stroke="none">
<path d="M2315 5109 c-800 -83 -1501 -518 -1927 -1196 -604 -960 -491 -2229
272 -3065 423 -463 951 -740 1585 -830 118 -17 511 -16 635 0 579 80 1097 337
1491 739 130 132 157 163 243 277 256 341 423 757 488 1211 17 118 17 512 0
630 -43 303 -122 561 -247 814 -134 268 -270 459 -483 674 -395 400 -889 649
-1457 733 -123 18 -478 26 -600 13z m-234 -1705 l479 -479 478 478 c450 450
481 479 520 484 22 3 53 2 69 -2 30 -7 226 -194 249 -237 17 -32 18 -91 3
-121 -6 -12 -223 -235 -483 -494 l-471 -473 471 -472 c260 -260 477 -483 483
-495 15 -30 14 -89 -3 -121 -23 -43 -219 -230 -249 -237 -16 -4 -47 -5 -69 -2
-39 5 -70 34 -520 484 l-478 478 -472 -471 c-260 -260 -483 -477 -495 -483
-30 -15 -89 -14 -121 3 -43 23 -230 219 -237 249 -4 16 -5 47 -2 69 5 39 34
70 484 520 l478 478 -478 478 c-450 450 -479 481 -484 520 -9 68 4 91 105 195
125 128 142 139 210 134 l54 -4 479 -479z"/>
</g>
</svg>
