<?xml version="1.0" standalone="no"?>
<!DOCTYPE svg PUBLIC "-//W3C//DTD SVG 20010904//EN"
 "http://www.w3.org/TR/2001/REC-SVG-20010904/DTD/svg10.dtd">
<svg version="1.0" xmlns="http://www.w3.org/2000/svg"
 width="200.000000pt" height="200.000000pt" viewBox="0 0 200.000000 200.000000"
 preserveAspectRatio="xMidYMid meet">

<g transform="translate(0.000000,200.000000) scale(0.100000,-0.100000)"
fill="#000000" stroke="none">
<path d="M945 1710 c-30 -62 -28 -61 -122 -75 -24 -4 -46 -12 -50 -18 -4 -6
17 -31 46 -57 l53 -47 -12 -71 c-6 -39 -9 -76 -5 -81 3 -6 31 2 70 21 l65 32
65 -32 c78 -38 83 -34 67 65 l-11 65 51 47 c29 26 48 52 45 58 -4 6 -26 14
-50 18 -94 14 -92 13 -122 75 -18 37 -35 60 -45 60 -10 0 -27 -23 -45 -60z"/>
<path d="M488 1456 c-26 -53 -29 -55 -75 -61 -63 -9 -83 -15 -83 -25 0 -4 21
-26 46 -48 l45 -41 -11 -62 c-7 -39 -8 -65 -2 -71 6 -6 30 2 63 21 l54 30 54
-30 c31 -16 59 -25 63 -21 5 5 5 36 -1 71 l-10 62 45 41 c24 22 44 44 44 49 0
9 -20 15 -83 24 -47 6 -50 8 -74 61 -13 30 -30 54 -37 54 -6 0 -24 -24 -38
-54z"/>
<path d="M1418 1456 c-27 -54 -46 -66 -112 -66 -11 0 -28 -5 -36 -10 -12 -9
-7 -18 34 -54 l48 -44 -11 -63 c-6 -38 -7 -67 -2 -72 6 -6 30 3 62 21 l53 30
59 -29 c32 -17 61 -28 64 -25 3 3 1 34 -4 70 l-9 65 43 43 c24 23 43 45 43 49
0 9 -21 15 -81 23 -43 6 -46 9 -72 61 -15 30 -33 55 -40 55 -7 0 -25 -24 -39
-54z"/>
<path d="M1008 1123 c-9 -10 -23 -41 -32 -70 -21 -63 -80 -150 -154 -226 l-57
-58 0 -231 c0 -220 1 -231 20 -242 11 -6 42 -24 70 -41 l50 -30 224 2 c173 1
226 5 232 15 14 21 10 57 -7 83 -15 23 -15 25 2 31 36 13 54 37 54 71 0 28 -6
37 -35 54 -33 20 -39 39 -11 39 22 0 46 35 46 67 0 30 -19 54 -53 66 -20 7
-14 27 7 27 22 0 46 35 46 67 0 55 -21 63 -173 63 -177 0 -166 -18 -141 225 5
41 2 55 -16 78 -25 31 -50 35 -72 10z"/>
<path d="M303 1068 c-5 -7 -17 -32 -27 -55 -17 -39 -22 -43 -65 -48 -97 -14
-103 -25 -39 -78 l41 -34 -10 -64 c-6 -35 -8 -68 -3 -72 4 -5 33 4 64 20 l57
28 55 -29 c30 -16 57 -26 61 -22 3 3 2 35 -3 71 l-10 65 43 41 c24 22 43 44
43 49 0 8 -16 13 -91 25 -31 6 -39 13 -62 61 -27 55 -38 63 -54 42z"/>
<path d="M1644 1027 c-24 -49 -32 -56 -63 -62 -75 -12 -91 -17 -91 -25 0 -5
19 -27 43 -49 l43 -41 -10 -65 c-5 -36 -6 -68 -3 -71 4 -4 31 6 61 22 l55 29
57 -28 c31 -16 60 -25 64 -20 5 4 3 37 -3 72 l-10 64 41 34 c64 53 58 64 -39
78 -43 5 -47 8 -70 57 -13 29 -30 54 -36 56 -7 2 -25 -21 -39 -51z"/>
<path d="M599 711 c-24 -19 -24 -22 -24 -194 0 -158 2 -177 19 -196 24 -27
110 -30 120 -5 12 31 7 389 -6 402 -19 19 -83 14 -109 -7z"/>
</g>
</svg>
