<?xml version="1.0" standalone="no"?>
<!DOCTYPE svg PUBLIC "-//W3C//DTD SVG 20010904//EN"
 "http://www.w3.org/TR/2001/REC-SVG-20010904/DTD/svg10.dtd">
<svg version="1.0" xmlns="http://www.w3.org/2000/svg"
 width="200.000000pt" height="200.000000pt" viewBox="0 0 200.000000 200.000000"
 preserveAspectRatio="xMidYMid meet">

<g transform="translate(0.000000,200.000000) scale(0.100000,-0.100000)"
fill="#000000" stroke="none">
<path d="M930 1891 c-43 -13 -84 -38 -112 -68 -33 -35 -67 -109 -68 -145 l0
-28 250 0 c283 0 265 -7 233 85 -39 117 -185 191 -303 156z"/>
<path d="M590 1596 c0 -14 16 -128 35 -255 27 -181 40 -241 60 -281 27 -53 82
-101 148 -127 27 -11 37 -21 37 -38 0 -40 20 -46 136 -43 l109 3 3 31 c3 27 9
34 49 49 59 23 131 88 154 141 15 33 89 475 89 530 0 12 -59 14 -410 14 l-410
0 0 -24z m445 -116 c14 -16 16 -23 7 -32 -7 -7 -12 -27 -12 -45 0 -32 2 -33
38 -33 21 0 43 5 48 10 7 7 17 3 31 -12 l21 -23 -19 -24 c-17 -21 -23 -23 -40
-13 -10 7 -33 12 -50 12 l-32 0 5 -109 c4 -97 2 -110 -14 -120 -13 -8 -23 -8
-36 0 -16 10 -18 23 -14 120 l5 109 -36 0 c-20 0 -39 -4 -42 -10 -11 -18 -31
-11 -45 15 -12 22 -11 27 5 45 13 15 22 17 36 10 10 -6 32 -10 50 -10 l32 0
-6 48 c-8 71 29 105 68 62z"/>
<path d="M852 818 c-18 -18 -14 -56 7 -68 11 -5 74 -10 140 -10 108 0 123 2
141 20 24 24 25 34 4 54 -12 13 -41 16 -148 16 -89 0 -136 -4 -144 -12z"/>
<path d="M900 692 c0 -9 -9 -23 -20 -30 -29 -18 -25 -42 26 -143 36 -73 47
-105 51 -160 6 -69 6 -69 -20 -69 -16 0 -35 -11 -52 -33 -24 -28 -35 -33 -89
-37 l-61 -5 -3 -57 -3 -58 271 0 270 0 0 60 0 60 -57 0 c-52 0 -59 3 -89 35
-18 20 -41 35 -54 35 -22 0 -23 2 -18 72 5 60 13 85 52 160 25 49 46 97 46
108 0 11 -11 27 -24 36 -15 9 -22 21 -19 30 4 12 -13 14 -101 14 -94 0 -106
-2 -106 -18z"/>
</g>
</svg>
