<?xml version="1.0" encoding="utf-8"?>
<!-- Svg Vector Icons : http://www.onlinewebfonts.com/icon -->
<!DOCTYPE svg PUBLIC "-//W3C//DTD SVG 1.1//EN" "http://www.w3.org/Graphics/SVG/1.1/DTD/svg11.dtd">
<svg version="1.1" xmlns="http://www.w3.org/2000/svg" xmlns:xlink="http://www.w3.org/1999/xlink" x="0px" y="0px" viewBox="0 0 256 256" enable-background="new 0 0 256 256" xml:space="preserve">
<metadata> Svg Vector Icons : http://www.onlinewebfonts.com/icon </metadata>
<g><g><g><path fill="#000000" d="M185,11c-5.2,1.4-12.4,5-16.4,8.4c-6.2,5.1-11.4,13.3-13.6,21.1c-1.3,4.6-1.6,13.1-0.7,17.7c0.4,2.1,0.7,3.9,0.7,3.9c0,0.1-14.5,8.2-32,18.1L91.1,98.3l-3.3-2.7c-4.6-3.8-8.3-6-13.2-7.6c-22.8-7.8-46.7,5-53.3,28.5c-0.9,3.2-1.2,5.4-1.2,10.3c0.1,7.1,0.9,11.3,3.5,17c5,10.7,13.5,18.4,24.9,22.3c4.6,1.6,5.2,1.6,12.6,1.6c7.4,0.1,7.9,0,12.6-1.6c5.7-2,10.6-4.7,14.3-8.1l2.6-2.4l31.7,18.5c17.4,10.2,32,18.7,32.3,18.9c0.5,0.3,0.5,1.2-0.1,4.4c-3.9,20.5,8.4,40.5,28.7,47c4.6,1.4,13.7,2,18.9,1c15.4-2.7,28.7-14.9,32.8-30.1c1.5-5.6,1.5-15.2,0-20.8c-3.8-14.3-15.8-26-30.1-29.6c-5.5-1.4-14.1-1.4-19.6,0c-5.4,1.3-12.5,4.9-16.6,8.3l-3.3,2.8l-32.1-18.7c-17.7-10.3-32.2-18.8-32.3-18.8c-0.1-0.1,0.1-1.3,0.4-2.6c1.1-4.1,1.3-10.5,0.5-15.1c-0.4-2.4-0.7-4.5-0.7-4.7c0-0.4,63.1-36.3,63.7-36.3c0.1,0,2,1.4,4.2,3.1c7.4,5.9,14.5,8.6,23.7,9c13.1,0.7,23.6-3.5,32.6-13.2c3.2-3.4,4.5-5.3,6.5-9.4c3.4-7.1,4.3-10.9,4.3-18.5c-0.1-7.6-1.2-12.2-4.6-18.9c-2-3.9-3.3-5.6-7.3-9.6c-6.6-6.6-12.4-9.9-20.4-11.5C198.6,9.6,189.7,9.8,185,11z M217.1,26.1c3.3,1.4,3.3,1.5,3.3,24.2v20.3l-1.7,1.7l-1.7,1.7h-20.8h-20.8l-1.6-1.5l-1.7-1.5l-0.2-20.5c-0.2-22.7-0.2-22.8,3.2-24.5C177.2,25,214.3,24.9,217.1,26.1z M74.7,107c1,0.4,2.5,1.2,3.4,1.8c1.8,1.3,3,1.3,6.5-0.5c1.1-0.6,2.1-0.9,2.3-0.7c0.5,0.5-0.5,2.4-2,4.2l-1.5,1.8l2.5-0.8c1.4-0.4,2.6-0.6,2.7-0.5c0.4,0.3-2.5,3.8-4,4.9c-1.3,0.9-1.4,1.3-1.7,5.2c-0.5,7.9-3.6,14.9-9.3,20.6c-5.8,5.8-12.7,8.9-21.3,9.4c-6.1,0.3-10.9-0.6-16.3-3.3l-4-1.9l4.4-0.4c4.5-0.4,9.1-1.8,11.3-3.5l1.3-1h-1.2c-2.8,0-6.8-3.1-8.5-6.6l-0.9-1.6H40h1.9l-2.3-1.5c-2.7-1.8-5-5.7-5-8.4v-1.8l1.8,0.8c2.5,1,2.6,0.9,1-1c-0.8-0.9-1.7-2.4-2.1-3.3c-0.9-2.2-0.9-6.4,0.1-8.8l0.8-1.8l1.6,1.7c5.2,5.6,14.2,10.3,20.1,10.3c1.5,0,1.5-0.1,1.6-2.5c0.1-2.3,1.3-5.4,2.9-7.3C65.5,107,70.4,105.6,74.7,107z M210.1,179.8v5.1H206c-3.7,0-4.3,0.2-5.4,1.3c-1.2,1.1-1.3,1.6-1.3,6.2v4.9h5.1h5.1v5.1v5.1h-5.1h-5.1v13.9v13.9h-5.6h-5.6v-13.6v-13.6h-4.6h-4.6v-5.4v-5.4h4.6h4.6l0.2-6.6c0.3-7.1,0.9-9.1,3.8-12.1c2.9-2.9,5.9-3.7,13.7-3.8l4.5-0.1V179.8L210.1,179.8z"/><path fill="#000000" d="M205.6,31.7c-0.4,0.5-0.6,2.1-0.5,4.3c0.2,3.3,0.3,3.5,1.6,4.2c1.1,0.5,2.3,0.6,4.6,0.3l3.1-0.5v-4.4v-4.4l-4.2-0.2C207.2,31,206,31.2,205.6,31.7z"/><path fill="#000000" d="M191.9,41.2c-7.2,3.2-7.2,13.8-0.1,17c5.1,2.3,10.8,0.2,13.2-4.9c1.2-2.5,1.2-4.3,0.2-6.8C203,41.2,197.1,38.8,191.9,41.2z"/><path fill="#000000" d="M177.1,46.2c-0.7,0.7-0.4,20.4,0.3,21.4c0.6,0.8,2.2,0.9,18.8,0.8l18.2-0.2l0.2-11.2l0.1-11.1h-2h-1.9l0.2,3.3c0.4,6.1-2.3,10.9-7.6,13.9c-2.5,1.4-3.2,1.5-7.4,1.5c-5.2,0-7.5-0.9-10.8-4.1c-3.1-3.2-4.1-5.6-4.1-10.4v-4.2h-1.8C178.3,45.9,177.3,46,177.1,46.2z"/></g></g></g>
</svg>