<?xml version="1.0" standalone="no"?>
<!DOCTYPE svg PUBLIC "-//W3C//DTD SVG 20010904//EN"
 "http://www.w3.org/TR/2001/REC-SVG-20010904/DTD/svg10.dtd">
<svg version="1.0" xmlns="http://www.w3.org/2000/svg"
 width="512.000000pt" height="512.000000pt" viewBox="0 0 512.000000 512.000000"
 preserveAspectRatio="xMidYMid meet">

<g transform="translate(0.000000,512.000000) scale(0.100000,-0.100000)"
fill="#000000" stroke="none">
<path d="M2312 4359 c-229 -14 -372 -48 -372 -89 0 -64 224 -100 625 -100 401
0 625 36 625 100 0 43 -131 73 -397 89 -190 12 -282 12 -481 0z m533 -39 c132
-11 247 -27 285 -42 22 -8 23 -10 8 -19 -35 -19 -186 -39 -378 -49 -292 -15
-700 11 -768 49 -15 9 -14 11 8 19 112 42 563 65 845 42z"/>
<path d="M2428 4040 c-76 -14 -178 -49 -248 -87 -476 -257 -573 -904 -191
-1283 176 -176 365 -248 615 -237 165 7 292 49 426 140 241 166 377 470 340
759 -42 323 -254 581 -560 679 -79 26 -115 32 -215 34 -66 2 -141 0 -167 -5z"/>
<path d="M217 3233 c-59 -20 -122 -80 -149 -139 -27 -62 -48 -177 -36 -199 19
-32 164 -118 377 -221 120 -59 258 -135 315 -174 119 -81 225 -182 251 -240
19 -41 15 -61 -7 -43 -33 27 -300 174 -457 253 -275 138 -444 188 -491 145
-11 -10 -20 -30 -20 -45 0 -33 76 -190 132 -273 120 -177 225 -246 553 -361
150 -54 227 -89 268 -124 46 -40 0 -33 -228 32 -366 107 -470 96 -390 -40 50
-85 303 -331 510 -495 186 -147 319 -222 397 -223 26 -1 53 5 59 11 10 10 13
87 14 305 2 321 15 437 71 603 52 159 147 298 240 355 19 12 34 25 34 30 0 11
-262 241 -430 376 -445 357 -825 533 -1013 467z"/>
<path d="M4705 3235 c-261 -57 -633 -297 -1102 -712 -79 -69 -143 -129 -143
-133 0 -5 16 -18 35 -30 54 -33 149 -144 188 -218 107 -206 157 -473 157 -847
0 -198 4 -215 53 -215 37 0 159 64 258 136 226 163 575 486 633 586 80 138
-21 149 -389 42 -228 -65 -274 -72 -227 -32 40 35 117 70 267 124 328 115 433
184 553 361 56 83 132 240 132 273 0 104 -170 70 -511 -100 -157 -79 -424
-226 -457 -253 -22 -18 -26 2 -7 43 49 108 263 267 533 397 198 95 354 183
394 223 l26 27 -13 69 c-27 142 -88 226 -186 257 -60 20 -111 20 -194 2z"/>
<path d="M1975 2397 c-204 -83 -369 -247 -454 -451 -56 -134 -61 -186 -61
-611 0 -211 3 -386 8 -389 4 -2 74 -23 156 -45 171 -47 395 -94 546 -115 514
-72 1075 -15 1428 145 l62 28 0 374 c0 396 -6 460 -51 587 -74 204 -241 380
-444 467 -113 49 -110 49 -168 5 -76 -57 -132 -87 -222 -118 -72 -25 -94 -28
-215 -28 -121 0 -143 3 -215 28 -90 31 -146 61 -221 117 -28 22 -55 39 -60 39
-5 0 -45 -15 -89 -33z"/>
</g>
</svg>
