<?xml version="1.0" standalone="no"?>
<!DOCTYPE svg PUBLIC "-//W3C//DTD SVG 20010904//EN"
 "http://www.w3.org/TR/2001/REC-SVG-20010904/DTD/svg10.dtd">
<svg version="1.0" xmlns="http://www.w3.org/2000/svg"
 width="512.000000pt" height="512.000000pt" viewBox="0 0 512.000000 512.000000"
 preserveAspectRatio="xMidYMid meet">

<g transform="translate(0.000000,512.000000) scale(0.100000,-0.100000)"
fill="#000000" stroke="none">
<path d="M1115 5101 c-168 -6 -184 -9 -247 -36 -146 -62 -264 -181 -329 -331
l-34 -79 0 -1976 0 -1975 37 -75 c110 -222 428 -470 753 -588 l86 -31 1347 0
c741 1 1377 5 1414 9 163 21 338 156 418 322 40 83 41 88 50 239 5 88 10 915
10 1901 0 1677 -1 1748 -19 1800 -33 96 -82 182 -140 242 -104 110 -199 158
-366 187 l-100 17 -31 59 c-70 131 -212 249 -354 296 -64 21 -74 21 -1190 23
-619 1 -1206 -1 -1305 -4z m3001 -800 c22 -10 54 -36 71 -57 l30 -39 6 -1832
5 -1833 -26 -39 c-15 -22 -45 -54 -67 -70 l-40 -30 -1333 -1 -1332 0 -73 36
c-39 20 -115 62 -167 93 l-95 56 1220 6 c1344 7 1257 3 1394 70 77 38 204 159
245 233 14 27 38 81 51 120 l24 71 7 1618 c6 1484 8 1617 23 1617 9 0 34 -9
57 -19z m-1654 -663 l3 -293 293 -3 292 -2 0 -195 0 -195 -292 -2 -293 -3 -3
-587 -2 -588 -195 0 -195 0 0 590 0 590 -295 0 -295 0 0 195 0 195 295 0 295
0 0 295 0 295 195 0 195 0 2 -292z"/>
</g>
</svg>
