<?xml version="1.0" standalone="no"?>
<!DOCTYPE svg PUBLIC "-//W3C//DTD SVG 20010904//EN"
 "http://www.w3.org/TR/2001/REC-SVG-20010904/DTD/svg10.dtd">
<svg version="1.0" xmlns="http://www.w3.org/2000/svg"
 width="512.000000pt" height="512.000000pt" viewBox="0 0 512.000000 512.000000"
 preserveAspectRatio="xMidYMid meet">

<g transform="translate(0.000000,512.000000) scale(0.100000,-0.100000)"
fill="#000000" stroke="none">
<path d="M3550 4885 c-22 -26 -172 -117 -268 -162 -202 -95 -362 -135 -783
-197 -274 -40 -367 -62 -491 -116 -234 -101 -478 -300 -596 -487 -15 -24 -30
-43 -33 -43 -3 0 -9 29 -12 64 -3 34 -15 87 -26 116 -57 150 -130 196 -426
270 -83 20 -162 43 -175 50 -36 19 -127 108 -152 148 -34 55 -31 26 6 -86 19
-56 33 -102 31 -102 -2 0 -17 5 -32 12 -53 23 -101 68 -126 118 -24 47 -25 48
-31 24 -4 -14 -4 -42 -1 -62 l6 -37 -26 30 -27 30 6 -89 5 -89 -29 34 c-16 19
-29 30 -30 26 0 -5 33 -97 74 -205 440 -1167 769 -2312 877 -3049 l23 -152
259 -301 c142 -165 266 -300 274 -300 9 0 31 -12 50 -26 88 -67 226 -103 321
-83 70 14 145 48 204 93 84 64 451 156 744 186 538 55 1077 145 1363 226 123
35 243 83 254 101 7 12 -88 539 -179 993 -158 787 -323 1478 -499 2091 -90
313 -218 702 -245 747 -11 18 -35 40 -54 48 -29 14 -35 24 -46 73 -7 31 -14
60 -17 64 -3 4 -33 -8 -68 -28 -35 -19 -68 -35 -73 -35 -6 0 -13 27 -17 60 -7
62 -14 71 -35 45z m-445 -1786 c35 -124 56 -183 64 -181 7 1 67 41 133 88 66
47 125 87 132 90 7 3 22 -46 42 -146 l31 -150 -143 -106 c-122 -89 -143 -109
-139 -127 8 -37 155 -998 155 -1016 0 -12 -39 -35 -132 -79 -72 -34 -134 -60
-136 -57 -3 3 -40 228 -83 501 -43 273 -79 497 -81 500 -2 2 -61 -41 -131 -96
-70 -55 -131 -100 -135 -100 -5 0 -19 57 -32 128 -12 70 -25 132 -27 138 -2 7
59 58 136 115 78 57 141 108 141 114 0 6 -23 113 -50 239 -28 126 -49 230 -48
231 23 14 236 104 243 102 5 -2 32 -86 60 -188z"/>
</g>
</svg>
