<?xml version="1.0" standalone="no"?>
<!DOCTYPE svg PUBLIC "-//W3C//DTD SVG 20010904//EN"
 "http://www.w3.org/TR/2001/REC-SVG-20010904/DTD/svg10.dtd">
<svg version="1.0" xmlns="http://www.w3.org/2000/svg"
 width="200.000000pt" height="200.000000pt" viewBox="0 0 200.000000 200.000000"
 preserveAspectRatio="xMidYMid meet">

<g transform="translate(0.000000,200.000000) scale(0.100000,-0.100000)"
fill="#000000" stroke="none">
<path d="M502 1795 l-222 -185 2 -798 3 -797 448 -3 447 -2 0 255 0 255 130 0
c109 0 130 -2 130 -15 0 -11 -12 -15 -50 -15 -60 0 -56 22 -35 -243 15 -198
23 -222 78 -232 18 -4 104 -5 191 -3 152 3 159 4 177 27 24 30 24 56 -1 81
-18 18 -33 20 -151 20 -120 0 -130 1 -125 17 3 10 17 72 30 138 66 327 58 499
-26 570 -53 45 -141 26 -174 -36 -9 -17 -18 -65 -21 -105 l-6 -74 -73 0 -74 0
0 483 0 482 -219 183 c-121 100 -223 182 -228 182 -5 0 -109 -83 -231 -185z
m260 -27 c3 -43 3 -43 46 -46 41 -3 42 -4 42 -38 0 -34 0 -34 -45 -34 l-45 0
0 -90 0 -90 -35 0 -35 0 0 90 0 90 -40 0 c-39 0 -40 1 -40 35 0 34 1 35 40 35
40 0 40 0 40 38 0 46 5 52 41 52 26 0 28 -3 31 -42z m273 -743 c0 -335 -1
-360 -17 -363 -16 -3 -18 8 -18 125 0 144 -10 173 -59 173 -43 0 -51 -16 -52
-110 l0 -85 -21 55 c-28 74 -55 110 -94 126 -86 36 -178 0 -279 -108 l-65 -70
0 311 0 311 303 -2 302 -3 0 -360z"/>
<path d="M743 1190 c-40 -24 -53 -48 -53 -97 0 -119 170 -156 216 -48 18 44
18 59 -2 101 -29 62 -101 81 -161 44z"/>
<path d="M1300 1119 c-63 -26 -94 -91 -70 -150 19 -45 56 -69 107 -69 38 0 50
5 79 34 26 26 34 42 34 70 0 51 -23 90 -64 110 -39 18 -51 19 -86 5z"/>
</g>
</svg>
