<?xml version="1.0" standalone="no"?>
<!DOCTYPE svg PUBLIC "-//W3C//DTD SVG 20010904//EN"
 "http://www.w3.org/TR/2001/REC-SVG-20010904/DTD/svg10.dtd">
<svg version="1.0" xmlns="http://www.w3.org/2000/svg"
 width="512.000000pt" height="512.000000pt" viewBox="0 0 512.000000 512.000000"
 preserveAspectRatio="xMidYMid meet">

<g transform="translate(0.000000,512.000000) scale(0.100000,-0.100000)"
fill="#000000" stroke="none">
<path d="M2411 5014 c-12 -15 -21 -40 -21 -56 0 -25 3 -29 18 -23 9 5 42 17
72 27 30 11 57 21 59 23 2 2 -8 15 -22 29 -35 35 -79 35 -106 0z"/>
<path d="M2490 4925 c-61 -19 -125 -76 -158 -139 -23 -44 -26 -62 -25 -136 0
-47 10 -130 22 -184 26 -122 26 -169 1 -225 -69 -152 28 -208 290 -166 285 47
510 202 510 353 0 46 -11 57 -93 96 -65 32 -119 95 -182 215 -48 91 -84 132
-145 165 -63 35 -152 43 -220 21z m534 -489 c81 -34 48 -105 -88 -191 -166
-106 -436 -167 -526 -120 -95 49 46 190 270 270 148 53 278 69 344 41z"/>
<path d="M2805 4382 c-78 -19 -88 -33 -55 -75 47 -59 155 -18 148 55 -2 17 -7
33 -13 34 -5 1 -41 -5 -80 -14z"/>
<path d="M1658 4762 c-32 -20 -58 -40 -58 -45 0 -11 72 -117 79 -117 9 0 121
71 121 76 0 6 -79 124 -83 124 -1 0 -28 -17 -59 -38z"/>
<path d="M3296 4773 l-68 -4 6 -31 c3 -17 6 -50 6 -74 l0 -44 59 0 c84 0 91 4
91 55 0 51 -10 106 -19 103 -3 -1 -37 -4 -75 -5z"/>
<path d="M1965 4489 c-33 -22 -59 -44 -57 -50 1 -5 18 -34 38 -63 l36 -54 63
40 64 41 -41 61 c-23 34 -42 62 -43 63 0 1 -28 -16 -60 -38z"/>
<path d="M1314 4505 c3 -9 6 -43 6 -76 l0 -59 75 0 76 0 -3 73 -3 72 -79 3
c-69 3 -78 1 -72 -13z"/>
<path d="M3663 4443 l-33 -4 0 -76 0 -76 53 7 c28 3 62 6 75 6 21 0 22 4 22
75 l0 75 -42 -2 c-24 0 -58 -3 -75 -5z"/>
<path d="M3376 4255 c-73 -51 -72 -47 -27 -114 l42 -61 59 40 c33 23 60 43 60
46 0 6 -80 124 -83 123 -1 0 -24 -15 -51 -34z"/>
<path d="M1510 4223 c0 -21 3 -55 6 -75 l7 -38 75 0 75 0 -7 46 c-3 26 -6 60
-6 75 l0 29 -75 0 -75 0 0 -37z"/>
<path d="M4120 4074 c-30 -21 -57 -38 -58 -40 -2 -1 15 -30 38 -64 l42 -61 25
17 c15 9 41 25 60 36 18 11 33 24 33 29 0 12 -71 119 -79 119 -3 0 -31 -16
-61 -36z"/>
<path d="M1010 3951 c0 -90 1 -91 87 -91 73 0 75 1 69 23 -3 12 -6 46 -6 75
l0 52 -75 0 -75 0 0 -59z"/>
<path d="M3444 3930 c-113 -24 -215 -104 -266 -208 -31 -62 -33 -74 -33 -167
0 -90 3 -106 29 -160 38 -76 110 -149 184 -183 50 -24 69 -27 162 -27 96 0
110 3 164 29 242 119 288 452 88 627 -83 73 -224 111 -328 89z"/>
<path d="M1711 3904 c-123 -44 -215 -145 -245 -270 -9 -37 -85 -195 -210 -434
-107 -206 -192 -378 -188 -382 8 -7 231 -58 255 -58 9 0 18 -4 21 -8 6 -11
-144 -199 -315 -393 -292 -333 -279 -316 -279 -369 0 -89 84 -150 160 -117 19
8 129 98 245 201 115 102 210 184 212 183 1 -2 -67 -360 -152 -797 -85 -437
-155 -801 -155 -807 0 -10 50 -13 203 -15 l202 -3 0 -240 c0 -173 3 -246 12
-262 49 -84 176 -84 216 0 11 23 21 101 32 258 9 123 18 230 20 237 3 8 30 12
90 12 60 0 87 -4 90 -12 2 -7 11 -115 19 -240 17 -247 24 -276 76 -303 56 -29
135 -11 162 38 9 15 14 94 18 267 l5 245 216 5 215 5 -167 795 c-93 437 -168
796 -169 798 0 2 29 -17 64 -42 121 -87 266 -138 348 -122 19 3 51 20 69 36
19 17 70 54 114 82 47 30 122 95 183 156 l102 104 0 -279 c0 -153 -7 -638 -16
-1078 -9 -440 -14 -837 -12 -883 3 -80 4 -85 36 -113 55 -50 151 -38 187 23
15 25 25 123 61 587 24 306 43 564 44 574 0 13 8 17 35 17 20 0 37 -6 40 -12
2 -7 22 -260 45 -563 23 -302 46 -562 51 -577 34 -87 138 -107 204 -37 l30 31
-3 306 c-2 281 -12 931 -28 1777 l-6 330 89 -90 c127 -130 168 -221 197 -442
7 -54 18 -108 25 -120 16 -31 62 -53 111 -53 32 0 48 7 78 34 l37 35 -2 82
c-1 46 -12 132 -23 191 -67 348 -235 625 -478 789 -41 27 -79 49 -85 49 -13 0
-117 -165 -117 -185 0 -7 7 -18 16 -25 43 -36 40 -44 -72 -200 -59 -83 -111
-147 -115 -143 -18 20 -201 278 -206 290 -3 8 7 27 22 43 19 20 25 34 21 47
-6 14 -110 186 -123 203 -8 10 -41 -45 -57 -95 -46 -146 -170 -350 -281 -461
-58 -59 -194 -156 -236 -169 -60 -19 -248 135 -350 288 l-61 91 119 22 c137
25 316 82 310 98 -3 6 -105 178 -227 381 -130 215 -228 389 -235 416 -7 25
-17 54 -22 63 -8 15 -11 14 -31 -7 l-22 -23 25 -24 c32 -30 31 -40 -4 -74 -31
-29 -39 -29 -77 6 -20 18 -21 18 -39 -2 -23 -25 -57 -26 -78 -2 -22 24 -21 44
2 73 19 23 19 24 -5 53 -22 25 -23 31 -11 49 7 11 23 27 34 34 18 12 24 11 49
-11 29 -24 30 -24 53 -5 13 10 30 19 39 19 27 0 -45 66 -112 101 -55 30 -71
34 -156 36 -68 2 -107 -1 -139 -13z m648 -763 c112 -187 149 -256 139 -262
-22 -14 -248 -59 -294 -59 -16 0 -26 10 -39 43 -52 129 -63 145 -128 177 -116
56 -296 61 -401 10 -42 -20 -104 -79 -172 -163 l-31 -38 -92 16 c-103 18 -123
24 -119 36 9 25 254 489 258 488 3 0 20 -24 39 -53 40 -63 109 -119 183 -148
75 -29 193 -29 271 1 69 27 163 110 198 175 13 25 26 42 30 38 3 -4 75 -121
158 -261z m-613 -567 c27 -15 49 -38 62 -64 l20 -40 12 30 c17 41 72 87 120
100 82 22 166 -31 189 -117 9 -36 351 -1708 351 -1718 0 -3 -295 -5 -656 -5
-619 0 -655 1 -650 18 8 26 294 1556 307 1642 12 82 27 118 61 150 47 43 113
45 184 4z"/>
<path d="M2042 3688 c-28 -28 -3 -66 33 -52 20 8 19 50 -1 58 -20 8 -18 8 -32
-6z"/>
<path d="M3387 3088 c-28 -7 -38 -15 -34 -27 49 -187 162 -582 164 -575 2 5
39 139 83 299 55 200 77 292 69 300 -14 14 -234 17 -282 3z m91 -51 c31 -15
53 -14 100 5 40 16 54 2 50 -52 -3 -33 -5 -35 -38 -32 -19 2 -51 3 -70 3 -19
0 -51 -1 -70 -3 -33 -3 -35 -1 -38 30 -6 62 12 75 66 49z"/>
</g>
</svg>
