<?xml version="1.0" standalone="no"?>
<!DOCTYPE svg PUBLIC "-//W3C//DTD SVG 20010904//EN"
 "http://www.w3.org/TR/2001/REC-SVG-20010904/DTD/svg10.dtd">
<svg version="1.0" xmlns="http://www.w3.org/2000/svg"
 width="4096.000000pt" height="5300.000000pt" viewBox="0 0 4096.000000 5300.000000"
 preserveAspectRatio="xMidYMid meet">

<g transform="translate(0.000000,5300.000000) scale(0.100000,-0.100000)"
fill="#000000" stroke="none">
<path d="M10405 44910 c-202 -43 -389 -206 -445 -388 -73 -235 70 -741 309
-1099 95 -142 215 -273 250 -273 33 0 187 53 311 107 259 112 488 263 678 447
77 74 102 110 102 146 0 22 -69 138 -203 343 -302 462 -603 709 -882 722 -44
2 -98 0 -120 -5z"/>
<path d="M12616 44145 c-150 -43 -304 -168 -372 -301 -35 -69 -39 -84 -39
-153 1 -65 5 -84 30 -129 51 -94 417 -464 556 -562 149 -105 247 -140 389
-140 145 0 283 44 475 151 147 81 325 198 325 213 0 16 -235 271 -373 403
-353 339 -647 519 -862 529 -50 2 -98 -2 -129 -11z"/>
<path d="M9660 43997 c-14 -7 -30 -24 -37 -37 -40 -84 -42 -511 -4 -736 24
-142 67 -314 111 -439 38 -110 157 -353 205 -417 l35 -48 71 46 c164 106 326
155 514 156 71 0 149 -6 190 -16 296 -64 562 -255 751 -536 88 -133 181 -331
328 -702 141 -356 196 -476 288 -628 173 -288 429 -557 825 -867 76 -59 159
-128 184 -154 112 -112 1172 -1559 1476 -2015 217 -325 368 -509 648 -790 290
-290 574 -522 925 -756 153 -101 193 -138 309 -282 217 -268 399 -605 671
-1246 79 -184 247 -576 375 -870 471 -1085 741 -1751 906 -2239 75 -220 72
-228 -44 -132 -101 82 -283 269 -373 381 -303 380 -497 776 -858 1755 -153
417 -228 603 -344 861 -49 110 -136 321 -192 469 -155 407 -221 549 -330 703
-59 84 -150 178 -210 218 -39 26 -42 27 -98 14 -98 -22 -253 -80 -362 -136
-201 -103 -354 -240 -489 -438 -66 -97 -73 -104 -115 -115 -72 -18 -176 12
-210 61 -32 45 -21 70 86 198 193 232 337 382 586 608 75 69 102 100 102 117
0 19 -20 37 -100 90 -404 266 -716 601 -1187 1270 -179 254 -266 388 -496 762
-392 637 -553 858 -813 1121 l-121 122 -59 0 c-113 -1 -185 -36 -440 -218
-104 -74 -164 -102 -218 -102 -51 0 -59 11 -47 58 35 127 218 278 442 361 60
23 85 44 90 76 7 48 -11 73 -104 143 -323 242 -567 579 -717 988 -36 96 -52
126 -86 160 -96 97 -273 97 -501 1 -224 -95 -480 -304 -526 -429 -20 -56 -174
-81 -218 -37 -51 51 -164 329 -329 805 -53 155 -108 301 -121 325 -47 85 -107
90 -160 13 -91 -132 -190 -559 -175 -754 20 -265 81 -543 192 -885 91 -280
238 -631 277 -663 35 -29 82 -17 149 38 83 68 243 146 338 166 145 31 305 4
460 -77 313 -163 621 -589 751 -1037 59 -203 212 -455 565 -932 67 -91 148
-212 180 -270 77 -140 257 -511 444 -915 205 -444 382 -801 481 -970 241 -412
564 -840 1180 -1561 230 -271 265 -316 338 -444 252 -439 464 -885 625 -1313
120 -321 293 -897 279 -933 -9 -23 -40 -36 -61 -25 -40 21 -201 202 -268 301
-122 180 -219 372 -368 732 -229 554 -336 755 -506 955 -59 69 -62 71 -98 67
-398 -55 -650 -145 -893 -320 -69 -50 -183 -158 -287 -274 l-41 -45 -89 0
c-100 0 -132 15 -132 63 0 52 156 237 293 348 175 140 349 231 650 339 100 36
205 75 232 87 54 22 105 63 105 85 0 8 -71 89 -159 181 -200 211 -314 340
-456 517 -506 632 -939 1381 -1296 2242 -77 186 -86 203 -119 222 -58 33 -110
36 -187 13 -103 -32 -190 -89 -412 -273 -59 -50 -67 -53 -125 -57 -48 -2 -68
1 -93 17 -56 35 -39 78 69 173 148 130 212 167 463 268 180 73 190 78 193 105
9 75 -86 244 -372 660 -106 154 -210 309 -231 345 -50 85 -90 127 -134 142
-21 8 -82 13 -146 12 -191 0 -324 -52 -609 -234 -173 -111 -220 -136 -283
-146 -166 -26 -270 179 -361 710 -32 184 -42 206 -102 206 -67 0 -79 -19 -113
-190 -51 -252 -61 -362 -61 -690 0 -260 3 -329 22 -470 88 -646 307 -1265 657
-1849 109 -182 149 -288 185 -497 80 -460 167 -806 309 -1224 231 -685 544
-1295 935 -1825 264 -356 514 -833 656 -1250 111 -327 181 -656 290 -1360 39
-253 93 -593 121 -755 27 -162 88 -545 135 -850 259 -1696 386 -2397 500
-2776 383 -1272 1089 -2580 2003 -3714 862 -1070 1881 -1952 2978 -2581 215
-123 678 -353 843 -418 340 -135 796 -263 1144 -321 274 -46 428 -61 681 -67
333 -8 547 9 1149 93 328 46 330 46 390 30 81 -23 158 -74 181 -121 16 -35 16
-40 2 -71 -19 -38 -50 -56 -187 -107 -198 -74 -454 -137 -695 -171 -200 -28
-337 -36 -637 -36 l-297 0 -20 -26 c-39 -49 -29 -79 60 -184 226 -266 373
-470 777 -1080 173 -261 368 -551 432 -645 65 -93 194 -291 287 -440 202 -321
293 -455 350 -512 73 -74 196 -92 291 -44 42 21 222 211 637 672 1976 2192
3681 4426 4793 6280 97 161 101 184 46 236 -163 153 -621 480 -880 628 -436
249 -761 673 -929 1215 -77 250 -125 509 -157 865 -19 204 -16 940 5 1285 9
151 26 430 38 620 26 441 37 1297 20 1527 -65 848 -324 1655 -827 2579 -262
482 -568 960 -1285 2009 -286 420 -519 773 -714 1085 -148 238 -242 374 -485
705 -359 488 -534 754 -697 1058 -56 106 -74 132 -103 147 -70 36 -177 61
-364 85 -185 24 -287 46 -314 68 -23 19 -10 60 28 82 32 18 51 20 235 20 220
0 257 8 291 60 24 38 12 91 -69 296 -80 203 -110 296 -136 430 -11 57 -38 181
-60 275 -128 546 -253 1444 -271 1942 -11 321 -22 438 -52 565 -44 191 -109
303 -219 376 -117 78 -234 88 -415 35 -228 -66 -412 -188 -576 -384 -305 -364
-489 -923 -548 -1663 -11 -139 -2 -201 55 -407 194 -691 751 -1709 1532 -2798
140 -196 166 -242 132 -242 -29 0 -242 183 -420 360 -228 227 -357 385 -544
665 -279 419 -438 725 -867 1665 -450 987 -639 1340 -951 1772 -59 82 -77 100
-114 114 -97 37 -204 -3 -465 -174 -204 -133 -225 -145 -286 -162 -72 -19
-132 11 -115 58 29 78 235 235 501 382 121 67 142 87 142 136 0 48 -47 103
-177 209 -65 52 -183 150 -263 216 -164 136 -475 379 -915 714 -1106 843
-1590 1291 -2165 2005 -87 108 -173 209 -191 224 -47 40 -86 32 -195 -41 -129
-86 -224 -140 -353 -200 -107 -49 -116 -51 -133 -36 -10 9 -18 29 -18 45 0 42
59 93 244 210 188 120 256 178 256 218 0 30 -58 87 -260 256 -233 195 -804
634 -825 634 -6 0 -44 -25 -85 -56 -132 -98 -301 -200 -428 -257 -180 -81
-252 -133 -252 -180 0 -8 59 -95 131 -193 836 -1139 1838 -2227 3291 -3575
267 -249 715 -657 957 -874 99 -89 167 -161 266 -285 323 -402 659 -895 1004
-1469 231 -383 488 -850 956 -1731 597 -1123 865 -1599 1181 -2096 46 -72 84
-138 84 -147 0 -9 -9 -21 -19 -27 -16 -8 -30 -2 -78 33 -371 274 -774 715
-1104 1208 -260 389 -404 652 -900 1642 -422 844 -506 1006 -666 1286 -273
476 -541 851 -850 1190 l-59 64 -80 -12 c-172 -28 -338 -99 -498 -212 -49 -35
-178 -150 -287 -256 -232 -226 -275 -253 -353 -223 -24 9 -26 14 -26 67 0 100
77 223 230 366 196 185 481 367 690 441 79 28 100 45 100 83 0 41 -23 63 -150
147 -373 245 -716 529 -1149 950 -152 149 -1116 1147 -1263 1308 -500 549
-1099 1294 -1573 1956 -82 114 -114 140 -157 127 -13 -4 -95 -42 -183 -85
-262 -127 -456 -269 -597 -437 -122 -145 -120 -143 -175 -143 -72 0 -93 8 -93
36 0 59 73 193 162 296 55 64 201 185 297 247 85 54 278 151 370 186 85 32
111 54 111 93 0 23 -18 44 -102 119 -57 49 -182 159 -278 244 -342 301 -482
439 -643 632 -48 57 -79 74 -114 63 -10 -3 -54 -41 -98 -83 -208 -202 -822
-532 -1140 -613 -124 -32 -161 -25 -244 47 -162 138 -421 607 -487 878 -24
101 -75 143 -134 112z"/>
<path d="M10478 42301 c-84 -27 -138 -63 -201 -130 -98 -106 -144 -245 -132
-396 26 -323 113 -650 242 -910 55 -111 129 -226 149 -232 6 -2 87 52 180 120
93 68 199 142 235 165 107 68 252 132 362 159 125 31 151 50 144 109 -5 50
-100 288 -179 451 -179 369 -369 592 -560 660 -68 25 -174 26 -240 4z"/>
<path d="M9465 40296 c-90 -90 -221 -528 -345 -1151 -61 -307 -94 -415 -280
-910 -243 -645 -303 -864 -317 -1150 -5 -119 10 -302 27 -319 4 -4 28 10 53
33 55 51 104 144 182 344 117 299 311 572 497 698 120 82 280 139 387 139 42
0 62 31 82 127 24 118 45 186 128 428 166 483 163 519 -84 1094 -120 279 -184
447 -220 583 -27 103 -63 131 -110 84z"/>
<path d="M10623 39183 c-107 -37 -195 -166 -229 -332 -22 -113 -15 -352 16
-496 42 -200 166 -526 216 -572 14 -13 34 -23 45 -23 10 0 78 29 149 65 218
109 283 132 421 151 218 29 272 53 289 129 8 36 3 55 -56 205 -76 192 -169
376 -259 510 -189 286 -418 425 -592 363z"/>
<path d="M9494 37675 c-246 -124 -402 -339 -644 -890 -175 -397 -1219 -2505
-1303 -2629 -57 -84 -122 -227 -148 -326 -20 -73 -23 -109 -24 -260 0 -227 23
-334 126 -607 122 -323 255 -1043 298 -1623 18 -241 24 -568 12 -690 -19 -194
-25 -485 -12 -603 29 -266 112 -464 261 -622 84 -89 348 -417 517 -642 347
-462 583 -833 782 -1231 153 -306 231 -509 1069 -2797 845 -2306 1195 -3235
1384 -3675 561 -1305 1274 -2131 2293 -2656 457 -235 1001 -412 1555 -504 194
-32 242 -57 260 -135 24 -105 -71 -214 -188 -215 -109 0 -634 101 -1032 200
-303 75 -374 78 -385 17 -6 -33 5 -83 103 -437 119 -433 195 -874 237 -1375
34 -413 30 -381 59 -420 33 -43 180 -116 386 -193 1393 -520 4208 -518 5775 3
306 102 502 192 695 320 150 99 185 148 172 236 -8 52 -199 330 -649 944 -185
252 -238 312 -304 346 -20 10 -159 49 -310 88 -469 119 -823 227 -1040 316
-368 151 -1021 502 -1469 791 -2126 1371 -3545 3360 -4396 6164 -371 1220
-615 2466 -903 4600 -56 414 -65 461 -121 675 -110 416 -206 718 -316 993 -47
118 -62 145 -108 192 -268 278 -571 731 -831 1245 -195 385 -289 630 -349 911
-54 255 -96 367 -156 418 -38 32 -82 34 -128 6 -60 -37 -65 -68 -51 -274 9
-138 10 -367 3 -966 -9 -824 -9 -1149 1 -1238 6 -44 18 -71 70 -146 453 -664
948 -1920 1106 -2806 18 -97 23 -165 23 -305 1 -173 0 -182 -24 -230 -70 -141
-89 -86 -370 1075 -158 656 -185 745 -310 1027 -175 391 -358 690 -474 775
-47 33 -97 37 -125 9 -11 -11 -65 -109 -120 -218 -55 -109 -117 -225 -139
-258 -119 -183 -248 -253 -403 -220 -47 10 -89 33 -89 49 0 7 42 100 94 207
276 567 422 1041 488 1579 18 145 18 1164 0 1385 -35 432 -90 625 -177 625
-14 0 -42 -11 -63 -24 -50 -33 -82 -40 -130 -27 -49 14 -108 76 -117 125 -12
59 4 93 93 204 219 274 367 559 443 850 45 176 46 173 -70 355 -247 387 -452
930 -545 1437 -58 321 -71 457 -68 723 4 282 -2 332 -50 372 -16 14 -40 25
-53 25 -13 0 -63 -20 -111 -45z"/>
<path d="M30376 22777 c-44 -54 -100 -145 -436 -697 -375 -617 -520 -852 -734
-1194 -2242 -3576 -4420 -6198 -6479 -7799 -203 -158 -223 -167 -324 -152
-144 21 -208 119 -130 199 17 19 115 107 217 196 102 90 263 234 358 322 210
194 208 189 105 300 -36 40 -105 125 -151 188 -97 131 -106 140 -142 140 -48
0 -286 -148 -460 -287 -114 -91 -304 -277 -402 -393 -148 -176 -304 -433 -357
-587 -91 -270 -70 -569 64 -903 115 -286 335 -624 667 -1022 222 -266 1117
-1177 1498 -1523 932 -849 1711 -1336 2342 -1465 102 -21 109 -21 192 -5 299
56 664 269 1111 650 185 158 717 689 926 925 1187 1337 2491 3240 3556 5190
1000 1831 1619 3397 1768 4472 22 160 31 488 16 617 -24 204 -46 266 -228 651
-316 669 -822 1201 -1533 1610 -326 187 -827 407 -1307 574 l-102 35 -35 -42z"/>
<path d="M12703 19070 c-28 -11 -96 -104 -179 -242 -375 -629 -654 -1618 -751
-2663 -25 -274 -25 -868 0 -1090 39 -339 107 -623 184 -765 184 -341 522 -840
802 -1180 243 -296 619 -685 911 -941 466 -410 1034 -816 1635 -1171 121 -71
787 -454 1065 -611 851 -481 1432 -706 2024 -782 764 -98 1666 141 2555 678
299 179 686 461 959 697 l24 20 -42 67 c-24 38 -107 159 -186 269 -347 489
-433 654 -496 959 -30 148 -33 426 -4 555 122 559 545 1061 1353 1604 73 49
135 98 139 108 22 71 -141 378 -395 742 -109 156 -132 180 -194 198 -37 11
-52 8 -286 -70 -1065 -354 -2002 -542 -3096 -624 -210 -16 -1341 -15 -1686 2
-431 20 -762 55 -1093 116 -1105 203 -1900 667 -2380 1389 -100 150 -119 190
-112 231 11 53 111 124 177 124 91 0 181 -81 351 -316 116 -160 167 -216 208
-229 29 -9 68 19 86 61 13 31 12 56 -16 262 -65 476 -123 810 -196 1112 -95
399 -156 559 -257 681 -62 74 -97 101 -352 269 -205 135 -352 248 -508 388
-189 169 -194 172 -244 152z"/>
</g>
</svg>
