<?xml version="1.0" encoding="utf-8"?>
<!-- Svg Vector Icons : http://www.onlinewebfonts.com/icon -->
<!DOCTYPE svg PUBLIC "-//W3C//DTD SVG 1.1//EN" "http://www.w3.org/Graphics/SVG/1.1/DTD/svg11.dtd">
<svg version="1.1" xmlns="http://www.w3.org/2000/svg" xmlns:xlink="http://www.w3.org/1999/xlink" x="0px" y="0px" viewBox="0 0 256 256" enable-background="new 0 0 256 256" xml:space="preserve">
<metadata> Svg Vector Icons : http://www.onlinewebfonts.com/icon </metadata>
<g><g><path fill="#000000" d="M162.2,149.3c-1.1-13.9,45.7-13.5,45.7-13.5s-36.4-7.9-53.4,6.2c-21.6,17.9,11,29.3,18.3,36.6c7.3,7.3,8,20.1-24.2,20.9c-32.2,0.7-54.9-1.5-54.9-1.5s-6.4,26.6-12.1,40.6c0,0,61.8,1.8,86.7-4c24.9-5.9,51.2-25.6,39.9-48.3C197,163.6,163.3,163.2,162.2,149.3z"/><path fill="#000000" d="M71.5,45.7c-34,0-61.5,27.5-61.5,61.5c0,34,49,60.7,61.5,128.5C89,169,133,141.2,133,107.2C133,73.2,105.4,45.7,71.5,45.7z M71.5,139.8c-18,0-32.6-14.6-32.6-32.6s14.6-32.6,32.6-32.6c18,0,32.6,14.6,32.6,32.6S89.4,139.8,71.5,139.8z"/><path fill="#000000" d="M246,53.6c0-20.1-16.3-36.4-36.4-36.4c-20.1,0-36.4,16.3-36.4,36.4c0,20.1,29,36,36.4,76.1C220,90.2,246,73.7,246,53.6z M190.3,53.6c0-10.6,8.6-19.3,19.3-19.3c10.6,0,19.3,8.6,19.3,19.3c0,10.6-8.6,19.3-19.3,19.3C198.9,72.9,190.3,64.2,190.3,53.6z"/></g></g>
</svg>