<?xml version="1.0" standalone="no"?>
<!DOCTYPE svg PUBLIC "-//W3C//DTD SVG 20010904//EN"
 "http://www.w3.org/TR/2001/REC-SVG-20010904/DTD/svg10.dtd">
<svg version="1.0" xmlns="http://www.w3.org/2000/svg"
 width="200.000000pt" height="200.000000pt" viewBox="0 0 200.000000 200.000000"
 preserveAspectRatio="xMidYMid meet">

<g transform="translate(0.000000,200.000000) scale(0.100000,-0.100000)"
fill="#000000" stroke="none">
<path d="M1183 1904 c-80 -29 -170 -148 -189 -251 -7 -40 -19 -41 -46 -8 -30
38 -95 67 -165 73 -58 4 -62 6 -68 33 -7 29 -47 69 -70 69 -30 0 -154 -73
-194 -114 -78 -79 -55 -142 58 -155 34 -4 66 -12 71 -17 6 -6 -13 -25 -55 -52
-98 -65 -145 -145 -145 -246 1 -122 98 -218 275 -272 94 -29 300 -24 427 9
198 52 281 114 335 249 18 43 48 92 82 131 133 153 158 326 64 437 -87 102
-264 155 -380 114z m221 -55 c61 -24 139 -85 160 -128 48 -95 8 -236 -101
-352 -26 -28 -55 -75 -73 -119 -54 -131 -98 -170 -248 -220 -256 -85 -514 -58
-654 68 -72 65 -87 145 -44 238 39 84 156 162 273 181 32 6 48 13 48 23 0 19
-43 24 -88 12 -28 -8 -40 -6 -73 14 -23 14 -55 24 -77 24 -125 0 -94 87 59
163 71 35 85 31 87 -24 2 -29 -3 -36 -30 -49 -19 -9 -32 -21 -30 -30 4 -20 45
-15 79 10 33 25 103 26 156 4 42 -17 92 -61 92 -80 0 -7 -20 -27 -44 -43 -63
-44 -90 -91 -83 -145 6 -40 4 -45 -36 -83 -23 -22 -59 -52 -79 -68 -38 -27
-50 -55 -25 -55 18 0 91 52 139 98 l37 35 38 -33 c38 -34 188 -110 216 -110 9
0 18 4 21 8 9 15 -8 29 -58 47 -101 39 -216 131 -216 174 0 28 42 82 82 105
20 11 39 19 41 16 2 -3 7 -29 10 -57 l6 -53 -35 0 c-28 0 -35 -4 -32 -17 3
-14 18 -19 73 -24 126 -12 205 -42 274 -104 40 -36 71 -45 71 -21 0 40 -135
124 -240 149 -61 14 -86 47 -76 103 6 27 3 35 -15 44 -21 12 -21 12 -2 33 11
12 27 49 37 82 30 104 95 181 172 205 41 13 123 4 188 -21z"/>
<path d="M1247 1533 c-14 -13 -6 -24 23 -34 32 -12 38 -27 18 -47 -17 -17 -38
-15 -60 4 -16 16 -18 15 -24 -1 -20 -51 63 -74 109 -31 15 14 27 36 27 50 0
39 -69 83 -93 59z"/>
<path d="M142 1084 c-31 -21 -29 -46 22 -227 37 -136 50 -167 96 -237 29 -44
68 -94 87 -110 19 -17 97 -62 174 -100 l139 -70 0 -120 0 -120 155 0 155 0 0
110 c0 99 15 200 30 200 15 0 30 -101 30 -200 l0 -110 155 0 155 0 0 118 0
117 145 74 c158 80 206 121 274 235 34 57 121 342 121 397 0 30 -28 59 -56 59
-39 0 -45 -10 -123 -201 -49 -119 -54 -126 -94 -147 -23 -11 -71 -37 -106 -57
l-64 -36 32 42 c36 50 38 67 10 103 -38 48 -71 38 -191 -63 -71 -59 -119 -91
-141 -95 -50 -9 -113 -59 -128 -100 -7 -20 -16 -36 -19 -36 -3 0 -12 16 -19
35 -15 43 -65 82 -126 101 -32 9 -76 39 -138 92 -131 113 -150 120 -192 77
-34 -33 -31 -69 6 -117 l32 -39 -64 36 c-35 20 -83 46 -106 57 -41 21 -45 27
-100 162 -73 178 -99 207 -151 170z"/>
</g>
</svg>
