<?xml version="1.0" standalone="no"?>
<!DOCTYPE svg PUBLIC "-//W3C//DTD SVG 20010904//EN"
 "http://www.w3.org/TR/2001/REC-SVG-20010904/DTD/svg10.dtd">
<svg version="1.0" xmlns="http://www.w3.org/2000/svg"
 width="256.000000pt" height="256.000000pt" viewBox="0 0 256.000000 256.000000"
 preserveAspectRatio="xMidYMid meet">

<g transform="translate(0.000000,256.000000) scale(0.100000,-0.100000)"
fill="#000000" stroke="none">
<path d="M63 2370 c-66 -40 -63 8 -63 -915 0 -910 -3 -868 56 -914 l27 -21
1197 0 1197 0 27 21 c59 46 56 3 56 916 0 814 -1 839 -20 870 -41 67 44 63
-1262 63 -1156 0 -1184 -1 -1215 -20z m2385 -757 l2 -673 -1170 0 -1170 0 0
668 c0 368 3 672 7 675 3 4 529 6 1167 5 l1161 -3 3 -672z m-1100 -829 c29
-33 28 -75 -4 -113 -20 -25 -34 -31 -64 -31 -69 0 -113 82 -74 138 34 48 102
51 142 6z"/>
<path d="M520 1990 c0 -100 4 -160 10 -160 6 0 73 -1 150 -1 77 0 145 1 151 1
17 0 5 109 -16 151 -47 93 -162 169 -255 169 l-40 0 0 -160z"/>
<path d="M1367 1986 c-163 -158 -187 -191 -150 -203 7 -3 83 63 169 146 85 83
159 151 163 151 5 0 77 -83 162 -185 85 -101 160 -184 168 -185 14 0 329 219
350 244 15 18 7 36 -16 36 -9 0 -83 -47 -165 -105 -82 -58 -153 -107 -157
-108 -4 -1 -79 82 -165 186 -91 108 -165 187 -174 186 -10 0 -93 -74 -185
-163z"/>
<path d="M403 2119 c-49 -24 -103 -80 -135 -141 -18 -34 -23 -59 -23 -123 0
-129 54 -219 163 -272 48 -24 69 -28 137 -28 67 0 88 5 131 27 57 30 119 94
140 144 8 18 14 36 14 39 0 3 -70 5 -156 5 l-156 0 -29 29 -29 29 0 156 c0 86
-3 156 -7 156 -5 0 -27 -9 -50 -21z"/>
<path d="M1480 1843 c-39 -14 -40 -27 -40 -385 0 -410 -6 -388 108 -388 45 0
75 5 90 16 l22 15 0 359 0 359 -22 15 c-22 16 -124 21 -158 9z"/>
<path d="M2116 1714 c-14 -13 -16 -56 -16 -310 0 -349 -5 -334 108 -334 119 0
112 -19 112 326 0 185 -4 303 -10 315 -9 16 -22 19 -95 19 -63 0 -87 -4 -99
-16z"/>
<path d="M1125 1546 c-14 -21 -16 -56 -13 -235 2 -153 6 -213 16 -223 20 -20
147 -23 177 -4 l25 16 0 220 c0 185 -2 221 -16 234 -11 12 -36 16 -94 16 -73
0 -81 -2 -95 -24z"/>
<path d="M1786 1548 c-13 -19 -16 -58 -16 -230 0 -251 -1 -248 108 -248 116 0
112 -8 112 249 0 261 4 251 -113 251 -67 0 -78 -3 -91 -22z"/>
<path d="M243 1424 c-3 -8 -1 -20 4 -25 5 -5 126 -8 299 -7 281 3 289 4 289
23 0 19 -8 20 -293 23 -259 2 -293 0 -299 -14z"/>
<path d="M243 1264 c-3 -8 -1 -20 4 -25 5 -5 126 -8 299 -7 l289 3 3 23 3 22
-296 0 c-259 0 -296 -2 -302 -16z"/>
<path d="M250 1115 c-10 -12 -10 -18 0 -30 11 -13 55 -15 289 -15 152 0 282 4
289 9 8 5 12 17 10 27 -3 18 -18 19 -289 22 -246 2 -288 0 -299 -13z"/>
<path d="M1251 746 c-16 -20 3 -56 29 -56 26 0 45 36 29 56 -6 8 -19 14 -29
14 -10 0 -23 -6 -29 -14z"/>
<path d="M970 405 l0 -55 -82 0 c-97 0 -141 -17 -175 -69 -28 -42 -29 -65 -3
-91 20 -20 33 -20 570 -20 537 0 550 0 570 20 26 26 25 49 -3 91 -34 52 -78
69 -174 69 l-83 0 0 55 0 55 -310 0 -310 0 0 -55z"/>
</g>
</svg>
