<?xml version="1.0" standalone="no"?>
<!DOCTYPE svg PUBLIC "-//W3C//DTD SVG 20010904//EN"
 "http://www.w3.org/TR/2001/REC-SVG-20010904/DTD/svg10.dtd">
<svg version="1.0" xmlns="http://www.w3.org/2000/svg"
 width="512.000000pt" height="512.000000pt" viewBox="0 0 512.000000 512.000000"
 preserveAspectRatio="xMidYMid meet">

<g transform="translate(0.000000,512.000000) scale(0.100000,-0.100000)"
fill="#000000" stroke="none">
<path d="M1720 4824 c-637 -170 -809 -219 -822 -235 -25 -30 -23 -81 5 -106
16 -14 251 -81 840 -237 l818 -217 722 192 c397 105 728 194 735 196 9 4 12
-77 12 -385 l0 -391 -60 -33 -60 -33 0 -288 0 -289 23 15 c12 8 58 39 102 70
l80 55 90 -63 c49 -34 96 -65 103 -69 9 -6 12 53 12 281 l0 288 -65 34 -65 35
0 406 0 407 25 23 c30 28 33 78 8 109 -15 17 -180 64 -828 236 -445 118 -823
215 -840 214 -16 0 -392 -97 -835 -215z"/>
<path d="M1430 3829 l0 -334 418 -78 c229 -43 446 -83 482 -89 36 -7 144 -11
240 -11 192 1 175 -1 808 119 l312 59 0 332 c0 183 -3 333 -7 333 -4 0 -253
-65 -553 -145 -300 -80 -556 -145 -569 -145 -13 0 -260 63 -550 140 -289 76
-538 142 -553 146 l-28 6 0 -333z"/>
<path d="M1440 3267 c0 -440 283 -859 693 -1028 279 -115 594 -112 875 9 385
166 646 544 669 970 3 61 4 112 1 112 -3 0 -170 -31 -369 -69 -200 -38 -418
-77 -484 -86 -151 -22 -384 -22 -530 -1 -85 12 -646 115 -827 152 l-28 6 0
-65z"/>
<path d="M2265 2033 c-60 -8 -113 -18 -118 -22 -8 -8 396 -326 413 -326 18 0
421 318 413 326 -4 4 -64 14 -131 23 -153 20 -426 19 -577 -1z"/>
<path d="M1847 1935 c-38 -13 -71 -26 -74 -29 -5 -5 340 -629 370 -669 10 -15
29 3 152 149 77 92 140 171 140 177 0 12 -495 397 -510 396 -5 0 -41 -11 -78
-24z"/>
<path d="M2932 1764 c-139 -108 -252 -200 -250 -204 2 -4 66 -83 143 -174 125
-149 141 -164 153 -149 24 33 374 664 371 668 -8 7 -105 43 -134 49 -27 6 -52
-11 -283 -190z"/>
<path d="M1493 1778 c-62 -35 -147 -87 -189 -117 l-78 -54 37 -19 37 -18 0
-203 0 -203 -176 -101 -176 -101 -103 59 c-56 33 -106 59 -111 59 -25 0 -169
-265 -234 -429 -46 -117 -101 -309 -120 -418 -10 -61 -9 -75 4 -102 9 -17 25
-35 35 -41 27 -14 4255 -14 4282 0 10 6 26 24 35 41 13 27 14 41 4 102 -19
109 -74 301 -120 418 -65 164 -209 429 -234 429 -5 0 -55 -27 -112 -59 l-102
-59 -176 102 -176 101 0 202 0 203 36 18 37 19 -64 45 c-101 72 -301 188 -323
188 -2 0 -104 -179 -227 -397 -122 -219 -231 -408 -242 -421 -27 -29 -78 -29
-110 1 -14 12 -100 112 -193 222 -92 110 -170 200 -174 200 -4 0 -82 -90 -174
-200 -201 -238 -207 -245 -250 -245 -21 0 -40 8 -53 23 -11 12 -120 201 -242
420 -123 218 -226 397 -230 397 -3 0 -57 -28 -118 -62z m532 -906 l120 -70 3
-205 2 -205 -142 -82 c-79 -46 -157 -91 -173 -101 l-30 -18 -178 102 -177 102
0 200 0 201 177 102 177 101 51 -29 c28 -16 104 -60 170 -98z m1473 23 l172
-99 0 -201 0 -200 -172 -99 c-94 -55 -176 -99 -182 -99 -6 0 -86 44 -179 98
l-167 97 2 205 3 205 170 98 c93 54 172 97 175 96 3 -2 83 -47 178 -101z"/>
<path d="M775 1671 l-170 -99 0 -206 0 -207 61 -34 60 -34 65 86 c78 106 263
299 358 373 38 30 70 57 70 60 1 4 -250 151 -267 157 -4 1 -83 -42 -177 -96z"/>
<path d="M4033 1692 c-73 -43 -132 -79 -132 -82 0 -3 32 -30 70 -60 95 -74
280 -267 359 -373 l64 -87 60 34 61 34 0 207 0 207 -170 99 c-93 54 -172 98
-175 98 -3 0 -64 -35 -137 -77z"/>
</g>
</svg>
