<?xml version="1.0" encoding="UTF-8"?>
<svg version="1.1" xmlns="http://www.w3.org/2000/svg" width="512" height="512">
<path d="M0 0 C1.36951407 -0.00302558 2.73902645 -0.0069171 4.10853589 -0.01159257 C7.84812702 -0.02182886 11.58762181 -0.01970197 15.32722068 -0.01541197 C19.36958572 -0.01293678 23.41192804 -0.02196872 27.45428467 -0.02944946 C35.36447225 -0.04217637 43.27462585 -0.04399267 51.18482195 -0.0416492 C57.61659743 -0.03986368 64.04836262 -0.04162069 70.48013687 -0.04587364 C71.85503741 -0.04676643 71.85503741 -0.04676643 73.25771371 -0.04767724 C75.1199936 -0.04888904 76.98227348 -0.05010317 78.84455337 -0.05131962 C96.29543605 -0.06218736 113.74629938 -0.06003626 131.19718315 -0.05393478 C147.14785229 -0.04876596 163.09846036 -0.0600215 179.04911743 -0.07903299 C195.44371765 -0.09842321 211.83828898 -0.10666534 228.23290074 -0.10290974 C237.43063628 -0.10099954 246.62831983 -0.10346765 255.82604599 -0.11762428 C263.65595378 -0.12955412 271.48577759 -0.13092499 279.31568657 -0.11883412 C283.30707249 -0.11295676 287.2983049 -0.11181422 291.28968048 -0.12383652 C294.95014391 -0.13473357 298.61032638 -0.13154702 302.27077688 -0.11757483 C304.20798084 -0.11369839 306.14519746 -0.12444367 308.08237159 -0.13587171 C323.89722009 -0.03881062 338.58356411 4.40943138 350.21170044 15.44819641 C360.986649 27.04832513 365.76548031 39.48013103 365.65515137 55.19699097 C365.65983134 56.24063983 365.66451131 57.2842887 365.6693331 58.35956329 C365.68121564 61.82617065 365.6718522 65.29237774 365.66238403 68.75898743 C365.66645269 71.25667042 365.67179622 73.75435162 365.67831421 76.25202942 C365.69054333 82.3132459 365.68879555 88.37430765 365.68007629 94.43551797 C365.67328173 99.36414547 365.67239065 104.29274176 365.67564774 109.2213726 C365.67610743 109.9247121 365.67656713 110.6280516 365.67704076 111.35270442 C365.678 112.78182524 365.67897265 114.21094605 365.67995854 115.64006685 C365.68849817 129.01776811 365.67870043 142.39540753 365.66255744 155.77309864 C365.64915261 167.23636203 365.65148645 178.69953427 365.66531372 190.16279602 C365.68138975 203.49647312 365.68767741 216.83009615 365.67847693 230.16378158 C365.67752135 231.58713304 365.67657823 233.01048451 365.67564774 234.43383598 C365.67518491 235.13403212 365.67472208 235.83422825 365.67424523 236.55564244 C365.67166162 241.47532604 365.67601266 246.39497515 365.6830864 251.3146534 C365.69240759 257.94264596 365.68571519 264.57049351 365.66840363 271.1984787 C365.66444445 273.62763369 365.66556305 276.0568032 365.67219162 278.48595238 C365.68041933 281.80795715 365.67007018 285.12941532 365.65515137 288.4513855 C365.66184353 289.40694558 365.6685357 290.36250567 365.67543066 291.34702212 C365.54704135 306.14001704 359.30677235 318.15635793 349.08670044 328.56147766 C337.4648937 339.71518385 323.3369854 343.03492753 307.60545349 342.8888855 C306.19449393 342.8939461 304.78354083 342.9011865 303.37260216 342.91038364 C299.54150129 342.92911763 295.71104849 342.91718072 291.87996519 342.89966071 C287.73064378 342.88618794 283.58141112 342.90175883 279.43209839 342.91348267 C271.32266089 342.93178884 263.21346554 342.92339478 255.10403577 342.90539444 C248.51075314 342.89132834 241.91753593 342.88748423 235.32423973 342.89083672 C233.91288799 342.89155288 233.91288799 342.89155288 232.4730241 342.89228351 C230.56121887 342.89330991 228.64941365 342.89436527 226.73760846 342.89544927 C209.86198084 342.90400176 192.98646964 342.88738702 176.11087036 342.85762024 C159.75600294 342.8287726 143.40130313 342.82170772 127.04641724 342.83711243 C109.20873406 342.85389093 91.37113032 342.85789305 73.53344506 342.84040207 C71.629868 342.83855779 69.72629093 342.83672306 67.82271385 342.83489799 C66.88626561 342.83398591 65.94981737 342.83307382 64.98499191 342.83213409 C58.40207822 342.82654001 51.81920346 342.8298252 45.23629189 342.83644295 C37.21066874 342.84419129 29.18521027 342.8373692 21.1596202 342.81226791 C17.06893394 342.79980921 12.97850361 342.7935821 8.88780785 342.80480957 C5.13678118 342.81491011 1.38626301 342.80627018 -2.3647022 342.78322839 C-4.35036974 342.77569268 -6.33608237 342.78756461 -8.32172316 342.80033213 C-23.58634936 342.6600896 -36.37795592 337.00284957 -47.55392456 326.65913391 C-53.80228839 319.75896235 -58.57889757 311.34510814 -60.72579956 302.26069641 C-60.89765148 301.60171639 -61.0695034 300.94273638 -61.24656296 300.26378727 C-61.94121356 295.91082496 -61.87023962 291.61267588 -61.86624146 287.21124268 C-61.86921258 286.1904657 -61.8721837 285.16968872 -61.87524486 284.11797911 C-61.88392586 280.69280563 -61.88543962 277.26766713 -61.88693237 273.84248352 C-61.89156103 271.38834051 -61.89658576 268.93419822 -61.90197754 266.48005676 C-61.91510046 259.80827096 -61.92158344 253.13649883 -61.9259882 246.46470332 C-61.92875396 242.29509717 -61.93299199 238.12549333 -61.93749237 233.95588875 C-61.94968422 222.40151967 -61.95998289 210.84715243 -61.96336746 199.29277706 C-61.96358703 198.55360099 -61.96380659 197.81442491 -61.96403281 197.05284956 C-61.96425109 196.31194363 -61.96446937 195.5710377 -61.96469426 194.80768007 C-61.96513772 193.30642315 -61.96558428 191.80516622 -61.96603394 190.3039093 C-61.96625537 189.55924023 -61.9664768 188.81457115 -61.96670493 188.04733635 C-61.97064938 175.99242792 -61.98809298 163.93758006 -62.01139346 151.88269501 C-62.03514677 139.49302041 -62.04757116 127.10337615 -62.04873538 114.71367842 C-62.04965004 107.76268785 -62.05534925 100.81177617 -62.07355499 93.86080742 C-62.09063101 87.31826702 -62.0921789 80.77584943 -62.08341599 74.233284 C-62.08264691 71.83721834 -62.08697117 69.44114457 -62.09687424 67.04509926 C-62.17575636 46.76348735 -60.77200969 30.98659655 -46.14376831 15.54975891 C-32.78141898 2.89978038 -17.86125053 -0.05380986 0 0 Z M-16.72579956 48.26069641 C-18.94538185 52.93152409 -19.00521874 57.49414321 -18.96630859 62.57499695 C-18.96801744 63.39683397 -18.96972629 64.21867099 -18.97148693 65.06541216 C-18.97477311 67.81077226 -18.96379251 70.55588629 -18.95285034 73.30122375 C-18.95228604 75.272527 -18.95260316 77.24383067 -18.95373535 79.21513367 C-18.95430912 84.56175216 -18.94255079 89.90828089 -18.92858744 95.25487852 C-18.91608419 100.84426639 -18.9149099 106.43365633 -18.91253662 112.02305603 C-18.90632067 122.60516708 -18.88990826 133.18723681 -18.86983764 143.76932967 C-18.84748226 155.81760139 -18.83648611 167.86587509 -18.82644677 179.9141624 C-18.80554216 204.69636331 -18.7703639 229.47852755 -18.72579956 254.26069641 C-14.32732792 250.57611243 -10.13722162 246.7874961 -6.1010437 242.70185852 C-5.32874672 241.92255226 -5.32874672 241.92255226 -4.54084778 241.12750244 C-3.43601971 240.01226721 -2.33230738 238.8959257 -1.22963142 237.77856255 C0.52160378 236.00506669 2.27697965 234.2357671 4.03361511 232.46762085 C9.02335557 227.4445082 14.00883772 222.41722972 18.98391724 217.3795929 C22.0393906 214.28629544 25.10228129 211.20050737 28.16992378 208.11927986 C29.33002801 206.95117183 30.48736017 205.7803034 31.64173698 204.60653496 C41.98418151 194.09332536 51.41998427 186.38652194 66.83670044 185.88569641 C83.90682478 186.46763247 94.6801489 197.08712992 105.89920044 208.63569641 C107.10528546 209.86188826 108.31231031 211.08715643 109.52029419 212.31147766 C112.44919913 215.28402021 115.36512946 218.26874591 118.27420044 221.26069641 C121.79631419 218.50648326 124.6221478 215.83410897 127.39920044 212.32319641 C128.17521606 211.35511047 128.95123169 210.38702454 129.75076294 209.38960266 C130.15971802 208.87929504 130.5686731 208.36898743 130.99002075 207.84321594 C133.20684868 205.1113759 135.49273918 202.43857051 137.77420044 199.76069641 C141.1475374 195.79209899 144.48597955 191.80051065 147.77420044 187.76069641 C151.52207842 183.15616061 155.34403488 178.6205045 159.18826294 174.09663391 C162.08664867 170.68010101 164.94575144 167.23564804 167.77420044 163.76069641 C171.06243912 159.72086031 174.40156525 155.7299076 177.77420044 151.76069641 C181.20213911 147.72387496 184.60483461 143.66961272 187.96170044 139.57319641 C188.68744263 138.68889954 189.41318481 137.80460266 190.16091919 136.89350891 C191.56789352 135.14064255 192.94595113 133.36416261 194.29373169 131.56538391 C201.21489262 122.41907656 208.71897267 117.67370937 219.71170044 114.57319641 C230.72440626 113.23018351 241.79598522 115.50856855 250.91091919 122.12397766 C255.98127301 126.70824798 260.27081511 132.03234021 264.62771606 137.28364563 C267.16228494 140.32708258 269.75185679 143.32248392 272.33670044 146.32319641 C273.32805527 147.48034651 274.31894117 148.6378985 275.30935669 149.79585266 C278.2954419 153.2860182 281.28459202 156.77354873 284.27420044 160.26069641 C285.27421384 161.42735159 286.27421385 162.59401825 287.27420044 163.76069641 C287.76920044 164.33819641 288.26420044 164.91569641 288.77420044 165.51069641 C293.27420044 170.76069641 293.27420044 170.76069641 294.77542114 172.51216125 C295.77129847 173.6739911 296.76722911 174.83577527 297.76321411 175.99751282 C300.32673916 178.98780247 302.88921684 181.97898005 305.44998169 184.97163391 C307.95145 187.89458515 310.45563692 190.815179 312.962677 193.73335266 C314.15909837 195.12665349 315.35347745 196.52170736 316.54763794 197.91694641 C317.17927856 198.64913391 317.81091919 199.38132141 318.46170044 200.13569641 C318.99150513 200.75186829 319.52130981 201.36804016 320.06716919 202.00288391 C320.4654895 202.41796204 320.86380981 202.83304016 321.27420044 203.26069641 C321.60420044 203.26069641 321.93420044 203.26069641 322.27420044 203.26069641 C322.34426955 183.65911943 322.39717833 164.05756784 322.42963696 144.45589161 C322.44510838 135.35456977 322.46620317 126.25332574 322.5005188 117.15205383 C322.53041271 109.2197404 322.54977344 101.28748331 322.55646592 93.35511512 C322.5603782 89.15464948 322.56957829 84.95434504 322.59139061 80.75393105 C322.61175567 76.80017826 322.61803423 72.84665304 322.61352348 68.89285278 C322.61434868 67.44202627 322.62031435 65.99119214 322.63181686 64.540411 C322.64675941 62.55850103 322.64136254 60.57646891 322.63496399 58.59451294 C322.63772937 57.48559598 322.64049475 56.37667902 322.64334393 55.23415852 C322.12101471 51.0267807 320.61793742 48.49790659 317.51530373 45.64123893 C314.71117908 43.91386951 312.97101051 43.88379435 309.6890955 43.88037968 C308.54514444 43.87193974 307.40119339 43.8634998 306.22257715 43.8548041 C304.33665996 43.86381917 304.33665996 43.86381917 302.41264343 43.87301636 C301.06394044 43.86884444 299.71524095 43.86336771 298.366548 43.85669655 C294.65685414 43.84220434 290.94738173 43.84649833 287.23767555 43.85386336 C283.23827312 43.85858344 279.23891941 43.84609549 275.23953247 43.83584595 C267.40304833 43.81862979 259.56664427 43.81782376 251.73014612 43.82305885 C245.36204508 43.82709654 238.99396775 43.82566177 232.62586784 43.82031059 C231.26753152 43.81918796 231.26753152 43.81918796 229.88175405 43.81804265 C228.04224984 43.81651121 226.20274563 43.81497286 224.36324143 43.81342768 C207.1038221 43.79969246 189.84444807 43.80514751 172.58502977 43.81661289 C156.78765945 43.82654645 140.99040623 43.8136043 125.19305397 43.7896787 C108.98060307 43.76530901 92.76820676 43.75567457 76.55573791 43.76233143 C67.45034279 43.76582838 58.34503775 43.76356025 49.23965645 43.7460804 C41.48842969 43.73138502 33.73735646 43.73068796 25.98613281 43.74815131 C22.03004384 43.75668576 18.07422944 43.75875166 14.11815453 43.74349976 C10.49782801 43.72971486 6.87801287 43.73433494 3.25771641 43.75373899 C1.32499234 43.75931148 -0.60775736 43.74517585 -2.54043287 43.73038489 C-3.68699167 43.74019918 -4.83355047 43.75001347 -6.01485348 43.76012516 C-7.00413497 43.7602325 -7.99341646 43.76033983 -9.01267618 43.76045042 C-12.50957475 44.40520897 -14.18669275 45.81839312 -16.72579956 48.26069641 Z " fill="#000000" transform="translate(146.72579956054688,41.73930358886719)"/>
<path d="M0 0 C0.33 0 0.66 0 1 0 C1.00146656 0.78315803 1.00293312 1.56631605 1.00444412 2.37320614 C1.04162222 21.49813359 1.10078163 40.62288003 1.18390274 59.74766445 C1.22358001 68.99657388 1.25602962 78.24539961 1.27099609 87.49438477 C1.28407161 95.56314879 1.31118519 103.63172778 1.35461307 111.70038754 C1.37709628 115.96605288 1.39291867 120.23149115 1.39188385 124.49722099 C1.39112936 128.5266722 1.40939032 132.55562398 1.44116783 136.58494568 C1.44956505 138.05004656 1.45148765 139.51520415 1.44580269 140.98031807 C1.40071039 154.40827392 3.18900462 168.42652062 9.75 180.375 C10.09289063 181.02726563 10.43578125 181.67953125 10.7890625 182.3515625 C21.48225067 202.17688947 37.53724258 215.26352968 58.9921875 221.9296875 C70.22005773 224.99183393 81.63458727 225.14855017 93.21185303 225.15821838 C94.48800736 225.16315636 95.76416169 225.16809434 97.07898736 225.17318195 C100.5863599 225.18662629 104.09372288 225.1941411 107.60111427 225.20060861 C111.3964511 225.20867359 115.19176841 225.22234999 118.98709106 225.23532104 C125.55122001 225.25699802 132.11535102 225.27517423 138.67949677 225.29092598 C148.16997606 225.31370508 157.66043365 225.34183642 167.15089443 225.37124526 C182.55110751 225.41882305 197.95132949 225.46211359 213.3515625 225.50268555 C228.30534559 225.54209056 243.25912078 225.58352867 258.21289062 225.62768555 C259.59711455 225.63177196 259.59711455 225.63177196 261.00930259 225.63594092 C265.63911716 225.64962122 270.26893162 225.66334133 274.89874601 225.67708123 C313.26581421 225.79089171 351.6328994 225.89773492 390 226 C389.381739 230.55102482 388.59414088 234.77437867 387.22167969 239.15966797 C386.85749939 240.33133514 386.49331909 241.50300232 386.11810303 242.71017456 C385.72334778 243.95823883 385.32859253 245.2063031 384.921875 246.4921875 C384.50910178 247.80577545 384.096528 249.11942609 383.68414307 250.43313599 C382.82045476 253.17947323 381.9523841 255.92437998 381.08154297 258.66845703 C379.9740198 262.16051745 378.88052265 265.65679178 377.79072189 269.15441704 C376.94299133 271.86771783 376.08618762 274.57809179 375.22690582 277.28775406 C374.62461201 279.19396364 374.03103221 281.10291963 373.43768311 283.01193237 C368.9082135 297.17260832 362.11627239 309.47724408 348.5625 316.75 C347.716875 317.1625 346.87125 317.575 346 318 C345.21625 318.4125 344.4325 318.825 343.625 319.25 C328.40395924 326.09946834 310.51998119 321.56108542 295.28125 317.17578125 C293.45256334 316.67058142 291.62315692 316.16798069 289.79309082 315.6678009 C286.03131357 314.63651617 282.2734074 313.59262127 278.51806641 312.53814697 C273.31319446 311.08070598 268.0959195 309.67453712 262.87109375 308.29052734 C261.64347179 307.96530924 261.64347179 307.96530924 260.39104939 307.63352108 C258.74244916 307.19704334 257.09380731 306.76072273 255.44512367 306.32456017 C251.26306686 305.21572 247.08407936 304.09545109 242.9050293 302.9753418 C242.06312137 302.74977883 241.22121344 302.52421587 240.35379314 302.29181767 C238.62394157 301.82835473 236.89410143 301.36484907 235.16427231 300.90130234 C231.48227413 299.91483451 227.80004059 298.92924672 224.11781216 297.9436388 C194.98239451 290.14499059 165.85053633 282.33301848 136.72119141 274.51171875 C133.3310677 273.60151402 129.94093056 272.69135936 126.55078125 271.78125 C125.70298096 271.5536499 124.85518066 271.3260498 123.98168945 271.09155273 C110.22639303 267.39917777 96.46855644 263.71634524 82.70984077 260.03673363 C76.14837377 258.28172486 69.58719062 256.5256551 63.02599621 254.76962757 C57.74275496 253.35575555 52.45931616 251.94263141 47.17538452 250.53134155 C36.68330278 247.72865986 26.19344944 244.91817971 15.71050167 242.08149815 C10.71964727 240.73141941 5.7256997 239.39393402 0.72836113 238.0680685 C-2.23721458 237.2778605 -5.1992116 236.47487429 -8.16028976 235.66799355 C-10.12246923 235.13721244 -12.08870363 234.62149033 -14.05508423 234.10649109 C-28.36636805 230.1697268 -39.81446821 222.84993248 -47.45703125 209.92578125 C-55.20392054 195.23611016 -54.73193842 179.24936914 -49.93855286 163.65412903 C-49.47359203 162.20033412 -49.00838813 160.74661693 -48.54296875 159.29296875 C-48.04998067 157.68269561 -47.55970339 156.07159062 -47.07182312 154.45976257 C-45.99346164 150.90982381 -44.90062619 147.36476607 -43.79827881 143.82220459 C-41.86243191 137.58198064 -39.9916766 131.3229669 -38.12744141 125.06103516 C-35.32759634 115.66284955 -32.51797987 106.26772492 -29.69335938 96.87695312 C-29.33391802 95.68182665 -28.97447666 94.48670017 -28.60414314 93.25535774 C-27.87396907 90.827794 -27.14373858 88.40024723 -26.41345215 85.97271729 C-23.49092629 76.25650965 -20.57199364 66.53922174 -17.65270042 56.82204247 C-16.65427532 53.49969273 -15.65502636 50.17759185 -14.65559387 46.85554504 C-14.02466294 44.75698205 -13.39377745 42.65840539 -12.76293945 40.55981445 C-12.45879781 39.54905004 -12.15465616 38.53828562 -11.8412981 37.49689198 C-10.1363214 31.82074712 -8.45012337 26.13941212 -6.78231812 20.45223999 C-6.415684 19.2047935 -6.04904989 17.95734701 -5.67130566 16.67209911 C-4.9596715 14.24792224 -4.25076238 11.8229434 -3.54485798 9.39709187 C-3.22645545 8.31308692 -2.90805292 7.22908197 -2.58000183 6.11222839 C-2.15780758 4.66550137 -2.15780758 4.66550137 -1.72708416 3.18954754 C-1 1 -1 1 0 0 Z " fill="#000000" transform="translate(53,190)"/>
<path d="M0 0 C8.04495995 7.21112533 13.32119682 17.92789532 14.0859375 28.671875 C14.3575139 42.26498858 11.2330352 53.36185707 1.84765625 63.48046875 C-8.53485152 73.4180119 -19.692931 75.82739256 -33.58984375 75.6015625 C-44.99556676 75.13100619 -54.60295831 69.26101342 -62.40234375 61.19921875 C-71.3376048 50.69449069 -72.88317397 38.57389989 -72.15234375 25.32421875 C-70.37543916 14.31644543 -63.89585832 4.14913967 -55.15234375 -2.67578125 C-36.81823056 -13.93137598 -17.13633142 -13.34208018 0 0 Z " fill="#000000" transform="translate(221.15234375,116.67578125)"/>
</svg>
