<?xml version="1.0" encoding="utf-8"?>
<!-- Svg Vector Icons : http://www.onlinewebfonts.com/icon -->
<!DOCTYPE svg PUBLIC "-//W3C//DTD SVG 1.1//EN" "http://www.w3.org/Graphics/SVG/1.1/DTD/svg11.dtd">
<svg version="1.1" xmlns="http://www.w3.org/2000/svg" xmlns:xlink="http://www.w3.org/1999/xlink" x="0px" y="0px" viewBox="0 0 256 256" enable-background="new 0 0 256 256" xml:space="preserve">
<metadata> Svg Vector Icons : http://www.onlinewebfonts.com/icon </metadata>
<g><g><g><path fill="#000000" d="M122.3,47c-1.4,0.5-4.1,2-6,3.2c-7.3,5-11.1,12-10.5,19.5c0.1,1.9,0.4,3.9,0.6,4.3c0.2,0.6,0,1-0.9,1.3c-1.7,0.6-2,2.6-1.1,6.5c1,4.3,2.1,7.1,3.3,7.9c0.5,0.3,1.3,1.9,1.7,3.5c2.2,8.4,7.1,13.5,14.8,15.3c5.3,1.3,11.7-0.5,15.7-4.4c2.6-2.5,5.1-7.1,5.6-10.3c0.2-1.4,0.6-2,1.5-2.3c1.6-0.6,2.5-2.1,3.7-5.8c1.2-3.6,1.3-7.7,0.3-8.8c-0.6-0.6-0.6-1.3-0.2-3.5c0.7-4.1,0.3-12.5-0.8-14.6c-1.1-2.1-3.2-4.4-4.1-4.4c-0.3,0-1.5-0.9-2.4-2C138.3,46.8,129.3,44.5,122.3,47z"/><path fill="#000000" d="M198.4,69.9c-7.9,1.2-16.6,9.2-18.8,17.3c-0.8,3.1-0.9,8.6,0,10.5c0.2,0.5-0.1,0.9-0.8,1.2c-0.6,0.3-1.3,1.1-1.6,1.8c-0.9,2.4,2.4,12.5,4.2,13.2c0.4,0.1,0.8,1.2,1,2.4c0.5,3.2,2.9,7.9,5.4,10.6c3.8,4,10.3,6.3,15.6,5.4c7.6-1.2,13-6.5,15.1-14.6c0.5-2.1,0.9-2.7,1.8-2.8c2.7-0.4,5.8-12,3.8-14.2c-0.5-0.6-0.6-1.3-0.2-3.5c0.2-1.5,0.4-5,0.3-7.8c-0.2-6.3-1.5-9.4-4.5-11c-1.1-0.5-2.7-1.9-3.8-3c-2.6-2.8-6.9-5-11-5.6c-1.9-0.2-3.5-0.4-3.6-0.4C201.1,69.6,199.8,69.7,198.4,69.9z"/><path fill="#000000" d="M49.1,70.8c-7.7,2.8-14.4,10.1-16.2,17.6c-0.6,2.4-0.4,7.6,0.2,9.4c0.2,0.5-0.1,0.9-0.9,1.3c-0.7,0.3-1.3,1.1-1.5,1.9c-0.5,2.8,2.2,12,4,12.9c0.4,0.2,1,1.6,1.4,3c2.4,9.8,9.3,15.7,18.2,15.8c8.8,0.1,14.8-4.7,17.7-14.2c0.7-2.2,1.3-3.4,1.7-3.2c1.4,0.5,4-5.2,4.8-10.5c0.2-1.6,0.1-2.4-0.5-3.4c-0.5-0.7-0.9-1.5-0.8-1.7c0.1-0.1,0.3-2.3,0.6-4.7c1-8.1-0.8-14.4-4.7-16.4c-1-0.5-2.7-1.9-3.8-3c-1.1-1.1-3.4-2.7-5.1-3.6c-2.8-1.4-3.8-1.6-7.9-1.7C52.7,69.9,51.1,70.1,49.1,70.8z"/><path fill="#000000" d="M139.4,120.6c-2.9,9.3-4.3,14.5-4,14.6c1.3,0.4,4.7,3.5,5.8,5.1c1,1.6,1.4,1.8,2.4,1.4c2.3-0.6,6.6-0.3,8.6,0.6c3,1.5,8.8,7.3,10.3,10.3c1.2,2.3,1.3,3,1.1,6.4l-0.2,3.8l2,1.5c1.1,0.8,2.7,2.6,3.5,4.1c1.4,2.3,1.7,2.6,4.6,3.5c18.9,6,44.4,4.9,63.3-2.7c5.8-2.3,8.4-3.9,8.7-5.2c0.7-2.9,0.9-12.1,0.3-14.8c-1.3-6.3-3.2-8.3-10.1-10.4c-4.3-1.3-13.5-5.5-16.8-7.7c-0.7-0.4-1.4-0.7-1.5-0.6c-0.1,0.1-2.2,6.7-4.7,14.6s-4.6,14.6-4.8,14.8c-0.1,0.2-1.1-1.9-2.1-4.8l-1.9-5.2l1.7-3.1c2-3.6,2.3-7,0.9-8.3c-2.2-2-7.8-2-9.9-0.1c-2,1.8-1.6,5.2,1.1,9.3l1.2,1.9l-1.7,4.9c-0.9,2.7-1.9,5-2,5.2c-0.1,0.2-2.4-6.2-4.9-14.3s-4.8-14.7-5-14.9c-0.2-0.1-1.2,0.3-2.2,1c-2.7,1.7-8.7,4.7-9.5,4.7c-0.5,0-0.6-1.4-0.6-5.5c0-5.9-0.6-8.5-2.3-11.1c-1.7-2.5-3.1-3.3-9.3-5.4c-5.5-1.9-11-4.4-15.3-7l-2-1.2L139.4,120.6z"/><path fill="#000000" d="M108.8,108.1c-3.6,2.2-9.7,5-14.5,6.5c-4.9,1.5-6.7,2.5-8.3,4.7c-2,2.5-2.8,6.2-2.8,12.2v5.3l-2.6-1.2c-1.5-0.6-4.2-2.1-6.2-3.2s-3.6-2-3.7-1.9c0,0-2.1,6.5-4.6,14.3c-2.4,7.8-4.6,14.4-4.9,14.8c-0.2,0.4-1-1.2-2.1-4.5l-1.8-5.2l1.7-3.2c1.6-3,2-5.5,1.4-7.3c-0.5-1.3-2.9-2.2-6.1-2.2c-2.7,0-3.2,0.1-4.5,1.5c-1.3,1.4-1.5,1.7-1.2,3.5c0.3,2,1.5,4.7,2.9,6.5c0.7,0.9,0.6,1.4-1,5.9c-1,2.7-1.9,5-2,5.3c-0.2,0.2-2.4-6.2-4.9-14.2c-2.5-8-4.7-14.7-4.9-14.9c-0.2-0.2-1.5,0.2-2.8,1.1c-3.9,2.4-10.3,5.2-15.5,6.9c-5.4,1.8-7.5,3.2-9.1,6.7c-1,2-1.1,3.2-1.3,9.1c-0.1,3.8,0,7.7,0.2,8.8c0.4,1.8,0.7,2.1,3.3,3.5c6.4,3.4,17.7,6.8,27.5,8.1c9.7,1.4,25,0.8,34-1.2c1.4-0.3,4.1-1,6.2-1.6c3.7-1,3.8-1.1,5-3.3c1.1-2.2,4.6-5.9,5.6-5.9c0.2,0,0.3-1.9,0.2-4.1c-0.3-5.4,0.5-7.2,6-12.4c3.4-3.3,4.5-4.1,6.9-4.7c2.4-0.7,3.3-0.7,5.5-0.2c1.6,0.3,2.7,0.3,2.8,0.1c0.5-1.7,3.3-4.5,5.4-5.5l2.4-1.2l-4.4-14.1c-2.4-7.8-4.7-14.2-4.9-14.2C111.4,106.6,110.1,107.3,108.8,108.1z"/><path fill="#000000" d="M124.9,113.6c-3.4,1.5-3.8,4.4-1,9.3l1.7,3.1l-1.4,4c-0.8,2.2-1.4,4.1-1.4,4.3c0,0.2,2.4,0.3,5.4,0.3c3,0,5.4-0.1,5.4-0.3c0-0.2-0.6-2.1-1.4-4.3l-1.4-4l1.7-3.1c2.9-5.2,2.3-8.3-1.7-9.5C128.2,112.7,126.7,112.8,124.9,113.6z"/><path fill="#000000" d="M123,145.7c-0.4,0.6-0.9,2.2-1.1,3.6c-0.1,1.4-0.4,2.7-0.6,2.9c-0.1,0.2-1.7,1.1-3.5,1.8l-3.2,1.4l-2.8-2c-1.5-1.1-3.1-2-3.6-2c-1,0-5.9,4.6-6.2,5.9c-0.1,0.6,0.5,2.1,1.7,3.9c1,1.6,1.9,3.1,1.9,3.3c0,0.9-2.4,6.2-3,6.4c-0.3,0.2-1.7,0.5-3.1,0.7c-4.1,0.6-4.1,0.7-4.1,5.6c0,2.9,0.2,4.5,0.6,4.8c0.3,0.3,2.1,0.8,3.9,1.1c2.3,0.4,3.4,0.8,3.6,1.4c0.1,0.4,0.8,1.9,1.4,3.3l1.1,2.5l-1.9,2.7c-1,1.5-1.9,3.1-1.9,3.6c0,1.1,5.3,6.5,6.3,6.5c0.4,0,2-0.9,3.6-1.9l2.8-1.9l2.5,1.1c1.4,0.6,2.8,1.2,3.3,1.4c0.6,0.2,0.9,1.1,1.2,3.1c0.5,4.6,1,5,5.8,5c2.9,0,4.2-0.2,4.6-0.7c0.3-0.4,0.8-2.1,1.1-4c0.4-2.2,0.8-3.4,1.3-3.5c0.4-0.1,2-0.8,3.4-1.4l2.6-1.2l2.7,2c1.5,1.1,3.2,2,3.7,2c1.5,0,6.2-4.8,6.2-6.3c0-0.6-0.8-2.3-1.8-3.7l-1.8-2.5l1.4-3.4l1.3-3.4l3.2-0.6c1.8-0.3,3.5-0.8,3.8-1.1c0.4-0.3,0.6-2,0.6-4.8c0-4.9,0-5-4.1-5.6c-3-0.4-4.1-1-4.1-2c0-0.4-0.4-1.6-1-2.6c-1.3-2.6-1.3-2.9,0.8-5.6c2.4-3.1,2.3-4.2-0.6-7.1c-3.3-3.3-4-3.4-7.4-1l-2.9,2l-2.6-1.3c-1.5-0.6-2.9-1.2-3.2-1.2c-0.8,0-1-0.4-1.6-3.9c-0.3-1.7-0.7-3.4-1.1-3.8c-0.4-0.5-1.8-0.7-4.6-0.7C124,144.6,123.6,144.7,123,145.7z M134.8,163.1c2.9,1.5,6,4.6,7.4,7.6c1.7,3.4,1.7,9.7,0,13c-1.7,3.6-4.2,6.1-7.6,7.8c-9.9,4.9-21.7-1.9-22.5-12.9c-0.6-7.2,3.6-13.7,10.5-16.3C125.4,161.3,132.2,161.7,134.8,163.1z"/></g></g></g>
</svg>